<svg id="Layer_5" enable-background="new 0 0 64 64" height="512" viewBox="0 0 64 64" width="512" xmlns="http://www.w3.org/2000/svg"><g><path d="m63 16.044v-12.088l-32.066 1.394c-.322-2.448-2.4-4.35-4.934-4.35-2.682 0-4.86 2.127-4.978 4.781l-6.022.261v7.915l6 .261v9.145c-2.923.694-5.463 2.374-7.253 4.673-8.102 2.032-12.747 5.288-12.747 8.964 0 14.336 11.664 26 26 26h10c2.381 0 4.734-.332 7.006-.966 1.636.629 3.396.966 5.205.966h1.578c4.851 0 9.353-2.41 12.043-6.445l.168-.252v-5.303h-4.093c2.68-4.176 4.093-8.975 4.093-14 0-1.644-.894-3.183-2.638-4.588 1.648-1.508 2.638-3.379 2.638-5.412 0-4.962-5.832-9-13-9s-13 4.038-13 9c0 .48.07.947.175 1.406-.958-.241-1.941-.377-2.945-.394-.914-1.168-2.005-2.161-3.23-2.945v-10.414zm-32-3.393v-1.651h30v2.956zm30-3.651h-30v-1.651l30-1.304zm-44 2h6v-2h-6v-1.042l8-.348v4.78l-8-.348zm6 3.305 2 .087v8.668c-.333-.026-.664-.06-1-.06-.338 0-.669.025-1 .051zm1 10.695c2.918 0 5.694 1.184 7.739 3.21-.793.14-1.559.353-2.296.63-1.561-1.186-3.469-1.84-5.443-1.84-4.962 0-9 4.038-9 9 0 1.55.407 3.062 1.151 4.393-.893-.206-1.724-.422-2.483-.645-.435-1.198-.668-2.455-.668-3.748 0-6.065 4.935-11 11-11zm-4.905 15.981c-1.33-1.312-2.095-3.108-2.095-4.981 0-3.86 3.14-7 7-7 1.177 0 2.322.302 3.34.856-3.79 2.274-6.34 6.411-6.34 11.144 0 .094.014.186.016.28-.665-.093-1.305-.193-1.921-.299zm-7.737-1.999c-1.953-.729-3.258-1.448-3.935-1.977.633-.487 1.828-1.162 3.62-1.854-.018.282-.043.562-.043.849 0 1.016.13 2.01.358 2.982zm37.853 22.018c-3.51 0-6.802-1.471-9.142-4h19.863c-2.34 2.529-5.632 4-9.142 4zm11.789-6h-22v-2h22zm-24-4v5.303l.168.252c1.096 1.644 2.503 3 4.101 4.051-1.404.252-2.83.394-4.269.394h-10c-11.705 0-21.473-8.425-23.576-19.527 5.022 4.265 17.071 6.527 28.576 6.527 11.5 0 23.544-2.26 28.569-6.522-.643 3.424-2.023 6.652-4.091 9.522zm24-14c0 4.257-11.91 9-29 9s-29-4.743-29-9c0-2.346 3.478-4.749 9.225-6.474-.352.755-.633 1.548-.836 2.373-3.208 1.109-5.514 2.434-6.198 3.592l-.3.509.301.509c1.338 2.263 10.575 6.491 26.808 6.491s25.47-4.228 26.808-6.491l.301-.509-.301-.509c-.387-.655-1.218-1.272-2.11-1.792.721-.302 1.395-.65 2.016-1.039 1.138.832 2.286 2.002 2.286 3.34zm-34 4c0-3.86 3.14-7 7-7s7 3.14 7 7c0 .178-.034.354-.047.532-.651.071-1.319.135-2.011.192.034-.24.058-.482.058-.724 0-2.757-2.243-5-5-5s-5 2.243-5 5c0 .322.041.639.102.952-.7-.022-1.381-.052-2.046-.089-.035-.286-.056-.574-.056-.863zm4.189.988c-.111-.318-.189-.647-.189-.988 0-1.654 1.346-3 3-3s3 1.346 3 3c0 .3-.058.587-.143.867-1.529.083-3.141.133-4.857.133-.278 0-.537-.009-.811-.012zm22.779-6.42c1.289.564 2.132 1.071 2.606 1.439-1.195.932-4.321 2.457-9.591 3.577-.056-1.782-.466-3.498-1.208-5.082 1.327.317 2.745.498 4.225.498 1.384 0 2.716-.154 3.968-.432zm-3.968-15.568c6.065 0 11 3.14 11 7s-4.935 7-11 7-11-3.14-11-7 4.935-7 11-7zm-7.115 14.523c1.374 1.881 2.107 4.101 2.114 6.442-.643.112-1.314.217-2.011.314.002-.093.012-.186.012-.279 0-4.962-4.038-9-9-9s-9 4.038-9 9c0 .242.022.482.041.722-.692-.056-1.36-.121-2.01-.192-.008-.177-.031-.353-.031-.53 0-6.065 4.935-11 11-11 1.491 0 2.93.301 4.286.876 1.03 1.486 2.623 2.748 4.599 3.647zm-15.885-11.166v-15.747c0-.542-.225-1.069-.617-1.444-.391-.375-.917-.577-1.47-.554l-1.882.082c.156-1.509 1.42-2.694 2.969-2.694 1.654 0 3 1.346 3 3v3 2 13.026c-.649-.271-1.313-.505-2-.669z"/><path d="m11.303 49.38-1.569 1.24c4.209 5.326 10.502 8.38 17.266 8.38v-2c-6.148 0-11.869-2.777-15.697-7.62z"/><path d="m8.931 45.57-1.806.86c.339.712.723 1.417 1.141 2.095l1.702-1.05c-.38-.616-.729-1.257-1.037-1.905z"/><path d="m50 32c2.757 0 5-2.243 5-5s-2.243-5-5-5-5 2.243-5 5 2.243 5 5 5zm0-8c1.654 0 3 1.346 3 3s-1.346 3-3 3-3-1.346-3-3 1.346-3 3-3z"/></g></svg>