<svg id="Layer_3" enable-background="new 0 0 64 64" height="512" viewBox="0 0 64 64" width="512" xmlns="http://www.w3.org/2000/svg"><g><path d="m16 31c-3.859 0-7 3.14-7 7s3.141 7 7 7 7-3.14 7-7-3.141-7-7-7zm0 2c.125 0 .241.028.364.037l-.022.044c-1.231 2.461-2.976 4.665-5.082 6.434-.154-.481-.26-.984-.26-1.515 0-2.757 2.243-5 5-5zm-3.745 8.278c2.443-1.983 4.468-4.488 5.876-7.303l.189-.378c1.153.61 2.029 1.648 2.428 2.911l-.723.361c-2.613 1.306-4.879 3.099-6.786 5.292-.371-.245-.692-.55-.984-.883zm3.745 1.722c-.261 0-.512-.038-.762-.077 1.631-1.744 3.525-3.187 5.681-4.264l.015-.008c-.323 2.447-2.4 4.349-4.934 4.349z"/><path d="m42 31c-3.859 0-7 3.14-7 7s3.141 7 7 7 7-3.14 7-7-3.141-7-7-7zm0 2c.125 0 .241.028.364.037l-.022.044c-1.231 2.461-2.976 4.665-5.082 6.434-.154-.481-.26-.984-.26-1.515 0-2.757 2.243-5 5-5zm-3.745 8.278c2.443-1.983 4.468-4.488 5.876-7.303l.189-.378c1.153.61 2.029 1.648 2.428 2.911l-.723.361c-2.613 1.306-4.879 3.099-6.786 5.292-.371-.245-.692-.55-.984-.883zm3.745 1.722c-.261 0-.512-.038-.762-.077 1.631-1.744 3.525-3.187 5.681-4.264l.015-.008c-.323 2.447-2.4 4.349-4.934 4.349z"/><path d="m29 27c3.859 0 7-3.14 7-7s-3.141-7-7-7-7 3.14-7 7 3.141 7 7 7zm0-2c-.261 0-.512-.038-.762-.077 1.631-1.744 3.525-3.187 5.681-4.264l.015-.008c-.323 2.447-2.4 4.349-4.934 4.349zm4.747-6.492-.723.361c-2.613 1.306-4.879 3.099-6.786 5.292-.37-.246-.691-.551-.983-.884 2.443-1.983 4.468-4.488 5.876-7.303l.189-.378c1.152.612 2.029 1.65 2.427 2.912zm-4.747-3.508c.125 0 .241.028.364.037l-.022.044c-1.231 2.461-2.976 4.665-5.082 6.434-.154-.481-.26-.984-.26-1.515 0-2.757 2.243-5 5-5z"/><path d="m62 47h-7.695c2.834-1.992 4.695-5.28 4.695-9 0-6.065-4.935-11-11-11h-4.521c1.574-1.903 2.521-4.343 2.521-7 0-6.065-4.935-11-11-11h-6c-6.065 0-11 4.935-11 11 0 2.657.947 5.097 2.521 7h-4.521c-6.065 0-11 4.935-11 11 0 3.72 1.861 7.008 4.695 9h-7.695c-.553 0-1 .448-1 1 0 3.86 3.141 7 7 7h48c3.859 0 7-3.14 7-7 0-.552-.447-1-1-1zm-29-9c0-2.815 1.277-5.395 3.5-7.115 1.747-.24 3.365-.883 4.751-1.845.248-.02.496-.04.749-.04 4.963 0 9 4.038 9 9s-4.037 9-9 9-9-4.038-9-9zm2.695 9h-7.391c1.595-1.121 2.876-2.654 3.695-4.444.82 1.79 2.101 3.323 3.696 4.444zm-2.171-16c-.619.753-1.123 1.588-1.524 2.472-.401-.885-.907-1.719-1.528-2.472zm23.476 7c0 4.852-3.862 8.809-8.673 8.983 2.822-1.993 4.673-5.273 4.673-8.983s-1.851-6.99-4.673-8.983c4.811.174 8.673 4.131 8.673 8.983zm-13-18c0 4.852-3.862 8.809-8.673 8.983 2.822-1.993 4.673-5.273 4.673-8.983s-1.851-6.99-4.673-8.983c4.811.174 8.673 4.131 8.673 8.983zm-15-9c4.963 0 9 4.038 9 9s-4.037 9-9 9-9-4.038-9-9 4.037-9 9-9zm-6.255 18.038c1.386.962 3.003 1.606 4.749 1.847 2.195 1.698 3.506 4.337 3.506 7.115 0 4.852-3.862 8.809-8.673 8.983 2.822-1.993 4.673-5.273 4.673-8.983s-1.851-6.99-4.673-8.984c.14.006.28.01.418.022zm-15.745 8.962c0-4.962 4.037-9 9-9s9 4.038 9 9-4.037 9-9 9-9-4.038-9-9zm49 15h-48c-2.415 0-4.435-1.721-4.899-4h12.899 6 20 6 12.899c-.464 2.279-2.484 4-4.899 4z"/></g></svg>