<svg height="512" viewBox="0 0 64 64" width="512" xmlns="http://www.w3.org/2000/svg"><g id="Layer_9" data-name="Layer 9"><path d="m32 1a31 31 0 1 0 31 31 31 31 0 0 0 -31-31zm0 60a29 29 0 1 1 29-29 29 29 0 0 1 -29 29z"/><path d="m32 5a27 27 0 1 0 27 27 27 27 0 0 0 -27-27zm0 52a25 25 0 1 1 17.44-42.88.93.93 0 0 0 -.44-.12h-.17a7.82 7.82 0 0 0 -7.83 7.83v.17a1 1 0 0 0 1 1h.17a7.82 7.82 0 0 0 7.83-7.83v-.17a.93.93 0 0 0 -.12-.44 25 25 0 0 1 -17.88 42.44zm15.93-40.93a5.84 5.84 0 0 1 -4.86 4.86 5.84 5.84 0 0 1 4.86-4.86z"/><path d="m53.59 27.79a10.33 10.33 0 0 0 -8-3.79h-10.59a1 1 0 0 1 0-2h4v-2h-4a3 3 0 0 0 0 6h2v.87a5.81 5.81 0 0 0 2.89 5.07l.11.06v2h2v-1.32a5.61 5.61 0 0 0 2.12-.11v1.43h2v-2.21a2.47 2.47 0 0 1 2.11.3 2.59 2.59 0 0 1 1.08 1.64 7.53 7.53 0 0 1 -1.26 5.82l-1.83 2.57-5.38.88a1 1 0 0 0 -.82.78 1 1 0 0 0 .43 1l2.55 1.76v3.46a1 1 0 0 0 .67.94 1 1 0 0 0 .33.06 1 1 0 0 0 .78-.38l3.81-4.76a2.21 2.21 0 0 0 .69-.41l2.89-2.45a11.17 11.17 0 0 0 3.83-8.48 10.59 10.59 0 0 0 -2.41-6.73zm-12.69 2.42a3.81 3.81 0 0 1 -1.9-3.34v-.87h6.59a8.24 8.24 0 0 1 1.94.23l-1.15 3.46a4.47 4.47 0 0 0 -1.75.55 3.71 3.71 0 0 1 -3.73-.03zm8.45.23a4 4 0 0 0 -1-.48l1-3a8.27 8.27 0 0 1 2.64 2.12 8.81 8.81 0 0 1 .9 1.35l-2.42 1.21a4.57 4.57 0 0 0 -1.12-1.2zm-4.8 14.73-.89-.6 2-.33a.19.19 0 0 0 0 .08 2.24 2.24 0 0 0 .71 1.13l-1.37 1.7v-1.15a1 1 0 0 0 -.45-.83zm6.31-3.73-2.86 2.5a.25.25 0 0 1 -.26 0 .32.32 0 0 1 -.13-.17.26.26 0 0 1 0-.19l2.08-2.91a9.64 9.64 0 0 0 1-1.71h2.18a9.24 9.24 0 0 1 -2.01 2.48zm2.79-4.44h-2.39a9.52 9.52 0 0 0 0-3.53l2.41-1.2a8.48 8.48 0 0 1 .3 2.25 9.34 9.34 0 0 1 -.32 2.48z"/><path d="m41 27h2v2h-2z"/><path d="m28.59 29h-10.59a1 1 0 0 1 0-2h4v-2h-4a3 3 0 0 0 0 6h2v.87a5.81 5.81 0 0 0 2.89 5.07l.11.06v2h2v-1.32a5.61 5.61 0 0 0 2.12-.11v1.43h2v-2.21a2.47 2.47 0 0 1 2.11.3 2.59 2.59 0 0 1 1.08 1.64 7.53 7.53 0 0 1 -1.26 5.82l-1.83 2.57-5.38.88a1 1 0 0 0 -.82.78 1 1 0 0 0 .43 1l2.55 1.76v3.46a1 1 0 0 0 .67.94 1 1 0 0 0 .33.06 1 1 0 0 0 .78-.38l3.81-4.76a2.21 2.21 0 0 0 .69-.41l2.89-2.45a11.17 11.17 0 0 0 3.83-8.48 10.59 10.59 0 0 0 -2.41-6.73 10.33 10.33 0 0 0 -8-3.79zm-4.69 6.21a3.81 3.81 0 0 1 -1.9-3.34v-.87h6.59a8.24 8.24 0 0 1 1.94.23l-1.15 3.46a4.47 4.47 0 0 0 -1.75.55 3.71 3.71 0 0 1 -3.73-.03zm8.45.23a4 4 0 0 0 -1-.48l1-3a8.27 8.27 0 0 1 2.64 2.12 8.81 8.81 0 0 1 .9 1.35l-2.42 1.21a4.57 4.57 0 0 0 -1.12-1.2zm-4.8 14.73-.89-.6 2-.33a.19.19 0 0 0 0 .08 2.24 2.24 0 0 0 .71 1.13l-1.37 1.7v-1.15a1 1 0 0 0 -.45-.83zm6.31-3.73-2.86 2.5a.25.25 0 0 1 -.26 0 .32.32 0 0 1 -.13-.17.26.26 0 0 1 0-.19l2.08-2.91a9.64 9.64 0 0 0 1-1.71h2.18a9.24 9.24 0 0 1 -2.01 2.48zm2.79-4.44h-2.39a9.52 9.52 0 0 0 0-3.53l2.41-1.2a8.48 8.48 0 0 1 .3 2.25 9.34 9.34 0 0 1 -.32 2.48z"/><path d="m24 32h2v2h-2z"/><path d="m22 24a7 7 0 0 0 7-7 1 1 0 0 0 -1-1h-12a1 1 0 0 0 -1 1 7 7 0 0 0 7 7zm1.72-6a2 2 0 0 1 -3.44 0zm-5.58 0a4 4 0 0 0 7.72 0h1a5 5 0 0 1 -9.8 0z"/><path d="m38.83 18h.17a1 1 0 0 0 1-1v-.17a7.82 7.82 0 0 0 -7.83-7.83h-.17a1 1 0 0 0 -1 1v.17a7.82 7.82 0 0 0 7.83 7.83zm-2.54-5.29a5.71 5.71 0 0 1 1.64 3.22 5.84 5.84 0 0 1 -4.86-4.86 5.71 5.71 0 0 1 3.22 1.64z"/><path d="m19.78 44.33a7.48 7.48 0 0 1 -.78-3.33 3 3 0 0 0 -2-2.81 2.44 2.44 0 0 1 .69-1.48l-1.42-1.42a4.43 4.43 0 0 0 -1.27 2.89 3 3 0 0 0 -2 2.82v.18a5.88 5.88 0 0 0 .31 1.91 6 6 0 0 0 3.49 3.71l2.83 1.13a1 1 0 0 0 .37.07 1 1 0 0 0 .74-.32 1 1 0 0 0 .15-1.13zm-2.23.61a4 4 0 0 1 -2.34-2.48 4 4 0 0 1 -.21-1.28v-.18a1 1 0 1 1 2 0 9.49 9.49 0 0 0 .93 4.09z"/><path d="m9 32h4v2h-4z"/><path d="m27 25h4v2h-4z"/><path d="m24 12h4v2h-4z"/><path d="m35 51h4v2h-4z"/></g></svg>